<?xml version="1.0" encoding="UTF-8" standalone="no"?>
<svg
   xmlns:dc="http://purl.org/dc/elements/1.1/"
   xmlns:cc="http://creativecommons.org/ns#"
   xmlns:rdf="http://www.w3.org/1999/02/22-rdf-syntax-ns#"
   xmlns:svg="http://www.w3.org/2000/svg"
   xmlns="http://www.w3.org/2000/svg"
   xmlns:sodipodi="http://sodipodi.sourceforge.net/DTD/sodipodi-0.dtd"
   xmlns:inkscape="http://www.inkscape.org/namespaces/inkscape"
   sodipodi:docname="bsnes.svg"
   inkscape:version="1.0 (4035a4fb49, 2020-05-01)"
   id="svg66"
   version="1.1"
   viewBox="0 0 256 256"
   height="256mm"
   width="256mm">
  <g
     transform="matrix(3.3099785,0,0,3.5576071,-176.34642,-394.59483)"
     style="clip-rule:evenodd;fill-rule:evenodd;image-rendering:optimizeQuality;shape-rendering:geometricPrecision;text-rendering:geometricPrecision">
    <path
       class="fil3"
       d="m 125.122,139.436 c -0.7609,0.7504 -1.3432,1.595 -1.7896,2.5114 -0.5738,1.178 -0.4495,3.4767 -1.1373,3.8421 -1.1837,-0.6199 -1.2912,-3.6192 -1.5449,-5.419 -0.1053,-0.747 -0.0702,-1.6402 0.1934,-2.4078 0.2649,-0.771 0.7589,-1.4169 0.7822,-2.1641 0.1141,-3.6677 -2.2131,-7.552 0.1052,-10.8902 1.5519,0.0533 2.6939,0.3285 3.1054,0.9994 1.0282,-0.3663 1.6811,-1.5799 2.4051,-1.7045 1.0971,-0.1889 1.8373,0.4509 2.3997,1.0068 0.4238,0.419 0.7892,0.6822 0.8924,1.1145 0.1834,0.7687 0.0864,2.0763 -0.7599,3.0005 -0.3517,0.3841 -1.0504,0.5952 -1.5362,0.9631 -0.8959,0.6785 -1.6468,1.5687 -2.2481,2.7884 -0.8066,1.6362 -1.2757,3.6883 -0.8674,6.3594 z m -8.9593,-14.7775 c 0.3359,0.8955 0.5313,1.8806 0.6179,2.9348 0.1453,1.7673 -1.0481,3.5152 -1.3621,5.5749 -0.2161,1.4171 0.1675,2.811 0.2861,4.3175 0.2042,2.5964 0.113,5.3525 -1.6479,7.8755 -0.6724,-0.8203 -0.6138,-2.384 -0.9652,-3.4888 -0.2327,-0.7318 -0.7554,-1.2468 -0.9293,-1.991 -0.2575,-1.1016 -0.0284,-2.4299 -0.1828,-3.5535 -0.2407,-1.7531 -0.4634,-3.4043 -0.8853,-5.1016 -0.5885,0.0404 -1.6426,-0.0943 -2.2987,-0.6085 -0.6164,-0.4831 -0.818,-1.3902 -1.3758,-1.6219 -0.4082,-0.1696 -0.8698,-0.1177 -1.114,0.0208 -1.2896,0.7314 -0.9082,5.0013 -0.6353,6.2025 0.239,1.052 0.9028,2.648 1.8996,3.7364 1.2415,1.3557 2.9215,2.2096 4.027,3.5606 0.2856,0.3491 0.299,0.8334 0.444,1.2661 0.1864,0.5561 0.4801,1.0566 0.6801,1.3842 0.9836,1.611 1.1811,4.0724 3.8343,4.835 -0.3326,-0.7552 -1.3334,-1.3297 -1.4867,-1.9281 -0.1352,-0.5279 0.0147,-1.0189 0.4994,-1.4663 1.9546,-0.3869 3.8154,-0.4302 5.3421,0.753 0.3278,0.2754 0.4416,0.5564 0.4125,0.841 -0.0295,0.2886 -0.822,0.923 -1.6755,1.3028 -0.5875,0.2614 -0.6541,0.6614 0.442,0.3548 1.4939,-0.6745 2.5236,-1.9909 3.0386,-3.4668 0.5598,-1.6043 1.0348,-2.6451 2.0136,-3.6193 1.478,-1.4711 3.8824,-2.387 5.0136,-3.8364 -1.0985,5.3066 -5.4156,11.7828 -8.9301,17.454 -1.0703,1.727 -2.2958,3.557 -3.6817,5.2581 -0.726,0.891 -1.6772,1.6822 -2.2835,2.5437 -0.5167,0.7341 -0.9318,1.455 -1.2742,2.1575 -0.3782,0.6643 -0.5355,1.3136 -0.5013,1.9499 0.0469,0.8719 1.0058,1.4522 1.1438,2.5476 0.9561,0.4838 1.8306,0.6769 2.5067,0.7599 0.4232,0.052 0.9395,0.5097 1.0446,1.0246 -0.1244,0.4408 -0.4511,0.6318 -1.1955,0.2144 0.0686,1.1662 -0.4998,1.7341 -1.9989,1.4277 -0.9279,0.2849 -1.7846,0.1897 -2.57,-0.2855 -2.5465,0.0765 -4.3282,-0.4074 -5.3066,-1.4799 -0.5334,-0.5846 -0.4363,-1.2909 -0.4861,-2.23 -0.0388,-0.7303 0.1061,-1.6406 -0.0612,-2.5723 -1.7585,0.7806 -3.3434,0.8239 -4.8195,0.364 -5.039,-1.5702 -3.3391,-9.4694 -13.8843,-12.9998 -4.4737,1.2612 -10.746,0.2495 -13.0283,3.4884 -0.2916,0.8532 -0.2976,2.3416 -0.25,3.3649 2.2164,2.4827 3.8993,2.2024 4.4715,2.9649 0.5049,0.6727 0.1866,1.1169 -1.2412,1.193 -1.2674,0.3166 -2.5922,0.2673 -4.0873,0.2226 -0.8971,-0.027 -2.058,0.0346 -2.9266,-0.4541 -2.12,0.1144 -2.8845,-1.1861 -3.2663,-3.0518 -0.9062,-0.6503 -1.7435,-1.4209 -2.2249,-2.3926 -0.5457,-1.1013 -0.8406,-2.3925 -0.9338,-3.8362 -0.5373,-0.6034 -0.703,-1.2997 -0.8567,-1.9988 0.0896,-2.6916 -0.7078,-2.1159 -0.8566,-0.1428 -1.0296,2.6303 -2.2391,4.3178 -3.4201,5.3936 -1.2681,1.1554 -2.4324,1.7302 -3.3771,1.8854 -0.7347,0.1207 -1.3733,-0.0269 -1.6267,-0.1044 -0.4888,-0.1494 -0.9015,-0.8861 -0.7476,-1.5837 0.2564,-1.1628 2.3659,-2.8867 2.8267,-5.6446 0.0563,-2.7699 0.2147,-6.0127 0.0042,-8.7268 -0.0889,-1.1459 -1.6988,-1.5175 -1.5976,-2.6874 0.2826,-3.2655 1.3827,-6.6348 3.7263,-10.1629 7.2817,-12.4454 22.7492,-15.3723 46.4026,-8.7808 0.3734,-0.1011 0.4581,-0.4734 0.8249,-0.5426 0.5323,-0.1004 0.9532,1.4824 1.5264,1.5118 0.838,0.0429 1.8299,-1.4131 2.5497,-1.2735 1.302,0.2524 1.541,1.9087 3.7013,1.7678 0.0663,-0.4492 0.1942,-0.657 0.4618,-0.6744 0.5272,-0.0341 1.3048,-0.1584 2.251,-0.1466 z m 6.0022,14.208 c 1.2709,0.1366 1.9717,-0.4157 2.1024,-1.6569 -1.1138,-0.9982 -2.4262,-0.3569 -2.1024,1.6569 z m -9.1401,-2.4765 c -0.481,1.5738 0.0357,2.2687 1.5501,2.0846 0.1291,-0.9398 -0.2478,-1.7206 -1.5501,-2.0846 z m -5.6786,26.1402 c -0.4489,-3.2043 0.2024,-5.8725 1.6062,-8.174 -2.2726,0.2377 -4.6165,0.3091 -7.0317,0.2142 1.9717,2.4734 3.6908,5.0226 4.7116,7.7813 0.2679,0.1487 0.494,0.1724 0.7139,0.1785 z"
       id="path21"
       style="fill:#d45500" />
  </g>
</svg>
